<!DOCTYPE svg PUBLIC "-//W3C//DTD SVG 1.1//EN" "http://www.w3.org/Graphics/SVG/1.1/DTD/svg11.dtd">
<!-- Uploaded to: SVG Repo, www.svgrepo.com, Transformed by: SVG Repo Mixer Tools -->
<svg height="64px" width="64px" version="1.1" id="Layer_1" xmlns="http://www.w3.org/2000/svg" xmlns:xlink="http://www.w3.org/1999/xlink" viewBox="0 0 511.999 511.999" xml:space="preserve" fill="#000000">
<g id="SVGRepo_bgCarrier" stroke-width="0"/>
<g id="SVGRepo_tracerCarrier" stroke-linecap="round" stroke-linejoin="round"/>
<g id="SVGRepo_iconCarrier"> <path style="fill:#FF6465;" d="M464.612,0H47.386C21.216,0,0,21.216,0,47.386v417.226c0,26.172,21.216,47.386,47.386,47.386h417.226 c26.17,0,47.386-21.216,47.386-47.386V47.386C512,21.216,490.784,0,464.612,0z"/> <polygon style="fill:#FFFFFF;" points="371.949,193.255 318.744,140.051 255.999,202.796 193.255,140.051 140.051,193.255 202.796,255.999 140.051,318.744 193.255,371.949 255.999,309.204 318.744,371.949 371.949,318.744 309.204,255.999 "/> <path style="opacity:0.1;enable-background:new ;" d="M63.521,464.612V47.386C63.521,21.216,84.736,0,110.907,0H47.386 C21.216,0,0,21.216,0,47.386v417.226c0,26.17,21.216,47.386,47.386,47.386h63.521C84.736,512,63.521,490.784,63.521,464.612z"/> </g>
</svg>