<!DOCTYPE svg PUBLIC "-//W3C//DTD SVG 1.1//EN" "http://www.w3.org/Graphics/SVG/1.1/DTD/svg11.dtd">
<!-- Uploaded to: SVG Repo, www.svgrepo.com, Transformed by: SVG Repo Mixer Tools -->
<svg version="1.1" id="Layer_1" xmlns="http://www.w3.org/2000/svg" xmlns:xlink="http://www.w3.org/1999/xlink" viewBox="-148.48 -148.48 808.96 808.96" xml:space="preserve" width="64px" height="64px" fill="#000000">
<g id="SVGRepo_bgCarrier" stroke-width="0"/>
<g id="SVGRepo_tracerCarrier" stroke-linecap="round" stroke-linejoin="round"/>
<g id="SVGRepo_iconCarrier"> <rect x="204.8" y="384" style="fill:#D8D8DA;" width="102.4" height="89.6"/> <rect x="256" y="384" style="fill:#C6C5CA;" width="51.2" height="89.6"/> <rect y="12.8" style="fill:#EDEDED;" width="512" height="384"/> <rect x="256" y="12.8" style="fill:#D8D8DA;" width="256" height="384"/> <rect y="12.8" style="fill:#88888F;" width="512" height="320"/> <rect x="256" y="12.8" style="fill:#797781;" width="256" height="320"/> <rect x="140.8" y="460.8" style="fill:#EDEDED;" width="230.4" height="38.4"/> <rect x="256" y="460.8" style="fill:#D8D8DA;" width="115.2" height="38.4"/> <polygon style="fill:#797781;" points="256,51.2 256,12.8 0,12.8 0,332.8 256,332.8 256,294.4 38.4,294.4 38.4,51.2 "/> <polygon style="fill:#58575D;" points="256,294.4 256,332.8 512,332.8 512,12.8 256,12.8 256,51.2 473.6,51.2 473.6,294.4 "/> </g>
</svg>