<!DOCTYPE svg PUBLIC "-//W3C//DTD SVG 1.1//EN" "http://www.w3.org/Graphics/SVG/1.1/DTD/svg11.dtd">
<!-- Uploaded to: SVG Repo, www.svgrepo.com, Transformed by: SVG Repo Mixer Tools -->
<svg width="64px" height="64px" viewBox="-133.12 -133.12 1290.24 1290.24" class="icon" version="1.1" xmlns="http://www.w3.org/2000/svg" fill="#000000">
<g id="SVGRepo_bgCarrier" stroke-width="0"/>
<g id="SVGRepo_tracerCarrier" stroke-linecap="round" stroke-linejoin="round"/>
<g id="SVGRepo_iconCarrier">
<path d="M844.8 580.266667c2.133333-14.933333 4.266667-29.866667 4.266667-46.933334s-2.133333-32-4.266667-46.933333l96-68.266667c8.533333-6.4 12.8-19.2 6.4-29.866666L853.333333 230.4c-6.4-10.666667-17.066667-14.933333-27.733333-8.533333l-106.666667 49.066666c-25.6-19.2-51.2-34.133333-81.066666-46.933333L627.2 106.666667c-2.133333-10.666667-10.666667-19.2-21.333333-19.2h-183.466667c-10.666667 0-21.333333 8.533333-21.333333 19.2l-10.666667 117.333333c-29.866667 12.8-57.6 27.733333-81.066667 46.933333l-106.666666-49.066666c-10.666667-4.266667-23.466667 0-27.733334 8.533333l-91.733333 157.866667c-6.4 10.666667-2.133333 23.466667 6.4 29.866666l96 68.266667c-2.133333 14.933333-4.266667 29.866667-4.266667 46.933333s2.133333 32 4.266667 46.933334L85.333333 648.533333c-8.533333 6.4-12.8 19.2-6.4 29.866667L170.666667 836.266667c6.4 10.666667 17.066667 14.933333 27.733333 8.533333l106.666667-49.066667c25.6 19.2 51.2 34.133333 81.066666 46.933334l10.666667 117.333333c2.133333 10.666667 10.666667 19.2 21.333333 19.2h183.466667c10.666667 0 21.333333-8.533333 21.333333-19.2l10.666667-117.333333c29.866667-12.8 57.6-27.733333 81.066667-46.933334l106.666666 49.066667c10.666667 4.266667 23.466667 0 27.733334-8.533333l91.733333-157.866667c6.4-10.666667 2.133333-23.466667-6.4-29.866667l-89.6-68.266666zM512 746.666667c-117.333333 0-213.333333-96-213.333333-213.333334s96-213.333333 213.333333-213.333333 213.333333 96 213.333333 213.333333-96 213.333333-213.333333 213.333334z" fill="#607D8B"/>
<path d="M512 277.333333c-140.8 0-256 115.2-256 256s115.2 256 256 256 256-115.2 256-256-115.2-256-256-256z m0 362.666667c-59.733333 0-106.666667-46.933333-106.666667-106.666667s46.933333-106.666667 106.666667-106.666666 106.666667 46.933333 106.666667 106.666666-46.933333 106.666667-106.666667 106.666667z" fill="#455A64"/>
</g>
</svg>